<svg width="16" height="16" viewBox="0 0 16 16" fill="none" xmlns="http://www.w3.org/2000/svg">
<path fill-rule="evenodd" clip-rule="evenodd" d="M13.8457 6.03329C13.8457 6.30944 13.6218 6.53329 13.3457 6.53329H2.63107C2.35493 6.53329 2.13107 6.30944 2.13107 6.03329V4.31203C2.13107 3.91896 2.44956 3.59996 2.842 3.59996H3.0954C3.37154 3.59996 3.5954 3.82382 3.5954 4.09996V4.56663C3.5954 4.84277 3.81925 5.06663 4.0954 5.06663H4.55972C4.83586 5.06663 5.05972 4.84277 5.05972 4.56663V4.09996C5.05972 3.82382 5.28358 3.59996 5.55972 3.59996H10.417C10.6932 3.59996 10.917 3.82382 10.917 4.09996V4.56663C10.917 4.84277 11.1409 5.06663 11.417 5.06663H11.8813C12.1575 5.06663 12.3813 4.84277 12.3813 4.56663V4.09996C12.3813 3.82382 12.6052 3.59996 12.8813 3.59996H13.1135C13.5177 3.59996 13.8457 3.92849 13.8457 4.33329V6.03329ZM13.8457 13.1333C13.8457 13.5366 13.5162 13.8666 13.1135 13.8666H2.86323C2.45908 13.8666 2.13107 13.5381 2.13107 13.1333V8.49996C2.13107 8.22382 2.35493 7.99996 2.63107 7.99996H13.3457C13.6218 7.99996 13.8457 8.22382 13.8457 8.49996V13.1333ZM0.713606 13.6914C0.713606 14.501 1.41575 15.3333 2.22406 15.3333H13.9386C14.7477 15.3333 15.3334 14.5846 15.3334 13.6914C15.3334 13.4061 15.31 4.59729 15.31 4.11916C15.31 2.69177 15.1302 2.1976 12.8818 2.1393C12.6058 2.13214 12.3813 1.90944 12.3813 1.63329V1.16663C12.3813 0.890483 12.1575 0.666626 11.8813 0.666626H11.417C11.1409 0.666626 10.917 0.890484 10.917 1.16663V1.63329C10.917 1.90944 10.6932 2.13329 10.417 2.13329H5.55972C5.28358 2.13329 5.05972 1.90944 5.05972 1.63329V1.16663C5.05972 0.890483 4.83586 0.666626 4.55972 0.666626H4.0954C3.81925 0.666626 3.5954 0.890484 3.5954 1.16663V1.63329C3.5954 1.90944 3.37154 2.13329 3.0954 2.13329H2.13107C1.32569 2.13329 0.666748 2.79329 0.666748 3.59996L0.713606 13.6914Z" fill="white"/>
</svg>
