<?xml version="1.0" encoding="UTF-8"?>
<!DOCTYPE svg PUBLIC "-//W3C//DTD SVG 1.1//EN" "http://www.w3.org/Graphics/SVG/1.1/DTD/svg11.dtd">
<svg xmlns="http://www.w3.org/2000/svg" version="1.1" width="30px" height="30px" style="shape-rendering:geometricPrecision; text-rendering:geometricPrecision; image-rendering:optimizeQuality; fill-rule:evenodd; clip-rule:evenodd" xmlns:xlink="http://www.w3.org/1999/xlink">
<g><path style="opacity:0.848" fill="#fefffe" d="M 0.5,-0.5 C 9.83333,-0.5 19.1667,-0.5 28.5,-0.5C 28.5,0.166667 28.8333,0.5 29.5,0.5C 29.5,9.83333 29.5,19.1667 29.5,28.5C 28.8333,28.5 28.5,28.8333 28.5,29.5C 19.1667,29.5 9.83333,29.5 0.5,29.5C 0.5,28.8333 0.166667,28.5 -0.5,28.5C -0.5,19.1667 -0.5,9.83333 -0.5,0.5C 0.166667,0.5 0.5,0.166667 0.5,-0.5 Z M 3.5,3.5 C 5.26988,4.85587 6.60321,6.6892 7.5,9C 12.1667,9.66667 16.8333,9.66667 21.5,9C 22.5937,7.21975 23.5937,5.38642 24.5,3.5C 25.4973,10.8032 25.8306,18.1365 25.5,25.5C 18.1667,25.5 10.8333,25.5 3.5,25.5C 3.5,18.1667 3.5,10.8333 3.5,3.5 Z M 9.5,4.5 C 12.6399,3.35916 15.9733,3.1925 19.5,4C 16.2781,5.81751 12.9447,5.98418 9.5,4.5 Z"/></g>
<g><path style="opacity:0.762" fill="#fefffe" d="M 6.5,12.5 C 11.8437,12.334 17.1771,12.5006 22.5,13C 23.8333,14 23.8333,15 22.5,16C 17.1667,16.6667 11.8333,16.6667 6.5,16C 5.3157,14.8545 5.3157,13.6879 6.5,12.5 Z"/></g>
<g><path style="opacity:0.784" fill="#fefffe" d="M 6.5,19.5 C 11.8437,19.334 17.1771,19.5006 22.5,20C 23.8333,21 23.8333,22 22.5,23C 17.1667,23.6667 11.8333,23.6667 6.5,23C 5.3157,21.8545 5.3157,20.6879 6.5,19.5 Z"/></g>
</svg>
