<svg width="24" height="17" viewBox="0 0 24 17" fill="none" xmlns="http://www.w3.org/2000/svg">
<path d="M6.01126 9.85627C6.0138 9.90707 6.00599 9.95786 5.98828 10.0055C5.97058 10.0532 5.94336 10.0968 5.90828 10.1336C5.8732 10.1705 5.831 10.1998 5.78423 10.2198C5.73747 10.2398 5.68712 10.2501 5.63626 10.25H1.50001C1.33073 10.2503 1.16634 10.1933 1.03358 10.0882C0.900815 9.98322 0.807483 9.83638 0.76876 9.67158C0.744649 9.55879 0.74576 9.44206 0.772015 9.32975C0.79827 9.21743 0.84902 9.11231 0.920635 9.0219C1.58233 8.14438 2.46028 7.45345 3.46876 7.01658C3.026 6.6129 2.68642 6.109 2.47846 5.54709C2.27049 4.98517 2.2002 4.38161 2.27346 3.78694C2.34672 3.19228 2.56141 2.62382 2.89955 2.12919C3.23768 1.63456 3.68941 1.22815 4.21691 0.944004C4.74441 0.659856 5.33232 0.506243 5.93139 0.496028C6.53047 0.485814 7.12327 0.619297 7.66015 0.885297C8.19703 1.1513 8.66235 1.54207 9.01715 2.02489C9.37195 2.50771 9.60589 3.06851 9.69938 3.66033C9.71146 3.73992 9.6972 3.82127 9.65879 3.89201C9.62037 3.96275 9.5599 4.019 9.48657 4.05221C8.44631 4.53312 7.56532 5.30156 6.94755 6.26684C6.32977 7.23213 6.00099 8.35398 6.00001 9.50002C6.00001 9.62002 6.00001 9.73815 6.01126 9.85627ZM23.0738 9.02096C22.4136 8.14446 21.5376 7.45391 20.5313 7.01658C20.974 6.6129 21.3136 6.109 21.5216 5.54709C21.7295 4.98517 21.7998 4.38161 21.7266 3.78694C21.6533 3.19228 21.4386 2.62382 21.1005 2.12919C20.7623 1.63456 20.3106 1.22815 19.7831 0.944004C19.2556 0.659856 18.6677 0.506243 18.0686 0.496028C17.4696 0.485814 16.8768 0.619297 16.3399 0.885297C15.803 1.1513 15.3377 1.54207 14.9829 2.02489C14.6281 2.50771 14.3941 3.06851 14.3006 3.66033C14.2886 3.73992 14.3028 3.82127 14.3412 3.89201C14.3796 3.96275 14.4401 4.019 14.5134 4.05221C15.5537 4.53312 16.4347 5.30156 17.0525 6.26684C17.6702 7.23213 17.999 8.35398 18 9.50002C18 9.62002 18 9.73815 17.9888 9.85627C17.9862 9.90707 17.994 9.95786 18.0117 10.0055C18.0294 10.0532 18.0567 10.0968 18.0917 10.1336C18.1268 10.1705 18.169 10.1998 18.2158 10.2198C18.2626 10.2398 18.3129 10.2501 18.3638 10.25H22.5C22.6693 10.2503 22.8337 10.1933 22.9664 10.0882C23.0992 9.98322 23.1925 9.83638 23.2313 9.67158C23.2555 9.55859 23.2544 9.44161 23.228 9.3291C23.2015 9.21659 23.1505 9.11134 23.0784 9.02096H23.0738ZM14.73 13.0691C15.4768 12.4972 16.0256 11.7056 16.2992 10.8057C16.5729 9.90582 16.5577 8.94278 16.2558 8.05195C15.9538 7.16112 15.3804 6.3873 14.6159 5.83924C13.8515 5.29118 12.9345 4.99644 11.9939 4.99644C11.0533 4.99644 10.1364 5.29118 9.37191 5.83924C8.60747 6.3873 8.03399 7.16112 7.73206 8.05195C7.43012 8.94278 7.41493 9.90582 7.6886 10.8057C7.96227 11.7056 8.51106 12.4972 9.25782 13.0691C7.9327 13.6432 6.8262 14.6265 6.10032 15.875C6.03449 15.989 5.99983 16.1184 5.99984 16.2501C5.99985 16.3817 6.03452 16.5111 6.10036 16.6251C6.16621 16.7391 6.26091 16.8338 6.37495 16.8996C6.48899 16.9654 6.61834 17.0001 6.75001 17H17.25C17.3817 17.0001 17.511 16.9654 17.6251 16.8996C17.7391 16.8338 17.8338 16.7391 17.8997 16.6251C17.9655 16.5111 18.0002 16.3817 18.0002 16.2501C18.0002 16.1184 17.9655 15.989 17.8997 15.875C17.1723 14.6257 16.0637 13.6423 14.7366 13.0691H14.73Z" fill="#4F3D56"/>
</svg>
