<?xml version="1.0" encoding="UTF-8"?>
<!DOCTYPE svg PUBLIC "-//W3C//DTD SVG 1.1//EN" "http://www.w3.org/Graphics/SVG/1.1/DTD/svg11.dtd">
<svg xmlns="http://www.w3.org/2000/svg" version="1.1" width="28px" height="22px" style="shape-rendering:geometricPrecision; text-rendering:geometricPrecision; image-rendering:optimizeQuality; fill-rule:evenodd; clip-rule:evenodd" xmlns:xlink="http://www.w3.org/1999/xlink">
<g><path style="opacity:0.773" fill="#fefffe" d="M 3.5,-0.5 C 5.5,-0.5 7.5,-0.5 9.5,-0.5C 9.5,0.5 9.5,1.5 9.5,2.5C 6.5,2.16667 5.16667,3.5 5.5,6.5C 4.5,6.5 3.5,6.5 2.5,6.5C 2.29803,4.05035 2.63137,1.71702 3.5,-0.5 Z"/></g>
<g><path style="opacity:0.773" fill="#fefffe" d="M 17.5,-0.5 C 19.5,-0.5 21.5,-0.5 23.5,-0.5C 24.3686,1.71702 24.702,4.05035 24.5,6.5C 23.5,6.5 22.5,6.5 21.5,6.5C 21.8333,3.5 20.5,2.16667 17.5,2.5C 17.5,1.5 17.5,0.5 17.5,-0.5 Z"/></g>
<g><path style="opacity:0.665" fill="#fefffe" d="M 27.5,9.5 C 27.5,10.1667 27.5,10.8333 27.5,11.5C 18.1667,12.8333 8.83333,12.8333 -0.5,11.5C -0.5,10.8333 -0.5,10.1667 -0.5,9.5C 8.83333,8.16667 18.1667,8.16667 27.5,9.5 Z"/></g>
<g><path style="opacity:0.773" fill="#fefffe" d="M 9.5,21.5 C 7.5,21.5 5.5,21.5 3.5,21.5C 2.63137,19.283 2.29803,16.9496 2.5,14.5C 3.5,14.5 4.5,14.5 5.5,14.5C 5.16667,17.5 6.5,18.8333 9.5,18.5C 9.5,19.5 9.5,20.5 9.5,21.5 Z"/></g>
<g><path style="opacity:0.772" fill="#fefffe" d="M 23.5,21.5 C 21.5,21.5 19.5,21.5 17.5,21.5C 17.5,20.5 17.5,19.5 17.5,18.5C 20.5,18.8333 21.8333,17.5 21.5,14.5C 22.5,14.5 23.5,14.5 24.5,14.5C 24.702,16.9496 24.3686,19.283 23.5,21.5 Z"/></g>
</svg>
