<svg width="16" height="16" viewBox="0 0 16 16" fill="none" xmlns="http://www.w3.org/2000/svg">
<path fill-rule="evenodd" clip-rule="evenodd" d="M13.8667 7.26663C13.8667 6.86183 13.5382 6.53329 13.1334 6.53329H2.86675C2.46195 6.53329 2.13341 6.86183 2.13341 7.26663V13.1333C2.13341 13.5381 2.46195 13.8666 2.86675 13.8666H4.33341C4.73821 13.8666 5.06675 13.5381 5.06675 13.1333C5.06675 12.7285 5.39528 12.4 5.80008 12.4H10.2001C10.6049 12.4 10.9334 12.7285 10.9334 13.1333C10.9334 13.5381 11.2619 13.8666 11.6667 13.8666H13.1334C13.5382 13.8666 13.8667 13.5381 13.8667 13.1333V7.26663ZM15.3334 6.53329V13.8666C15.3334 14.677 14.6771 15.3333 13.8667 15.3333H10.9334C10.1231 15.3333 9.46675 14.677 9.46675 13.8666H6.53341C6.53341 14.677 5.87708 15.3333 5.06675 15.3333H2.13341C1.32308 15.3333 0.666748 14.677 0.666748 13.8666V6.53329C0.666748 5.72296 1.32308 5.06663 2.13341 5.06663H7.26675V3.59996C7.26675 2.78963 7.92308 2.13329 8.73341 2.13329H10.2001C10.6049 2.13329 10.9334 1.80476 10.9334 1.39996V0.666626H12.4001V2.13329C12.4001 2.94363 11.7437 3.59996 10.9334 3.59996H9.46675C9.06195 3.59996 8.73341 3.92849 8.73341 4.33329V5.06663H13.8667C14.6771 5.06663 15.3334 5.72296 15.3334 6.53329ZM11.6667 7.99996H10.2001C9.79528 7.99996 9.46675 8.32849 9.46675 8.73329V9.46663V10.2C9.46675 10.6048 9.79528 10.9333 10.2001 10.9333H11.6667C12.0715 10.9333 12.4001 10.6048 12.4001 10.2V9.46663V8.73329C12.4001 8.32849 12.0715 7.99996 11.6667 7.99996ZM6.53341 8.73329V9.46663V10.2C6.53341 10.6048 6.20488 10.9333 5.80008 10.9333H4.33341C3.92861 10.9333 3.60008 10.6048 3.60008 10.2V9.46663V8.73329C3.60008 8.32849 3.92861 7.99996 4.33341 7.99996H5.80008C6.20488 7.99996 6.53341 8.32849 6.53341 8.73329Z" fill="white"/>
</svg>
