<svg width="16" height="16" viewBox="0 0 16 16" fill="none" xmlns="http://www.w3.org/2000/svg">
<path d="M13.9459 3.09002L9.97722 13.81C9.72655 14.4874 9.00456 14.8354 8.36522 14.5867C8.2069 14.524 8.06327 14.4292 7.94338 14.3082C7.82348 14.1873 7.72991 14.0429 7.66856 13.884L6.41056 10.704C6.17415 10.0936 5.7055 9.60169 5.10722 9.33602L2.07922 8.01535C1.44922 7.74002 1.16256 6.97669 1.43789 6.31002C1.50301 6.14905 1.59941 6.00259 1.72151 5.87911C1.84361 5.75564 1.98899 5.65761 2.14922 5.59069L12.3599 1.42402C13.0046 1.16069 13.7199 1.49135 13.9566 2.16335C14.0612 2.46069 14.0572 2.79002 13.9466 3.09002H13.9459Z" fill="#787878"/>
</svg>
