<svg width="124" height="111" viewBox="0 0 124 111" fill="none" xmlns="http://www.w3.org/2000/svg">
<path d="M119.906 35.1559C118.51 33.5741 116.793 32.3074 114.869 31.44C112.946 30.5726 110.86 30.1244 108.75 30.125H81.125V23.75C81.118 17.5527 78.653 11.6113 74.2709 7.22914C69.8887 2.847 63.9473 0.38203 57.75 0.375C56.5666 0.375139 55.4065 0.704692 54.3998 1.32676C53.393 1.94883 52.5793 2.83886 52.0497 3.89719L32.5581 42.875H11C8.18207 42.875 5.47956 43.9944 3.48699 45.987C1.49442 47.9796 0.375 50.6821 0.375 53.5V100.25C0.375 103.068 1.49442 105.77 3.48699 107.763C5.47956 109.756 8.18207 110.875 11 110.875H102.375C106 110.874 109.501 109.55 112.219 107.15C114.936 104.751 116.684 101.441 117.133 97.8434L123.508 46.8434C123.77 44.7513 123.585 42.6274 122.964 40.6124C122.343 38.5974 121.301 36.7375 119.906 35.1559ZM13.125 55.625H30.125V98.125H13.125V55.625ZM110.875 45.2656L104.5 96.2656C104.435 96.782 104.183 97.2566 103.791 97.5993C103.399 97.942 102.895 98.1291 102.375 98.125H42.875V50.7534L61.3731 13.7625C63.4246 14.5067 65.1972 15.8645 66.45 17.6514C67.7027 19.4384 68.3749 21.5677 68.375 23.75V36.5C68.375 38.1908 69.0467 39.8123 70.2422 41.0078C71.4377 42.2034 73.0592 42.875 74.75 42.875H108.75C109.053 42.8726 109.353 42.935 109.63 43.058C109.906 43.181 110.154 43.3618 110.355 43.5882C110.556 43.8145 110.707 44.0813 110.796 44.3707C110.886 44.66 110.913 44.9651 110.875 45.2656Z" fill="#1F2937"/>
</svg>
