<svg width="32" height="32" viewBox="0 0 32 32" fill="none" xmlns="http://www.w3.org/2000/svg">
<circle cx="16" cy="16" r="15.5" fill="#0369A1" stroke="#FEFEFE"/>
<path d="M19.125 14.7501C19.125 14.9158 19.0592 15.0748 18.9419 15.192C18.8247 15.3092 18.6658 15.3751 18.5 15.3751H13.5C13.3342 15.3751 13.1753 15.3092 13.0581 15.192C12.9408 15.0748 12.875 14.9158 12.875 14.7501C12.875 14.5843 12.9408 14.4254 13.0581 14.3081C13.1753 14.1909 13.3342 14.1251 13.5 14.1251H18.5C18.6658 14.1251 18.8247 14.1909 18.9419 14.3081C19.0592 14.4254 19.125 14.5843 19.125 14.7501ZM18.5 16.6251H13.5C13.3342 16.6251 13.1753 16.6909 13.0581 16.8081C12.9408 16.9254 12.875 17.0843 12.875 17.2501C12.875 17.4158 12.9408 17.5748 13.0581 17.692C13.1753 17.8092 13.3342 17.8751 13.5 17.8751H18.5C18.6658 17.8751 18.8247 17.8092 18.9419 17.692C19.0592 17.5748 19.125 17.4158 19.125 17.2501C19.125 17.0843 19.0592 16.9254 18.9419 16.8081C18.8247 16.6909 18.6658 16.6251 18.5 16.6251ZM24.125 16.0001C24.1253 17.4028 23.7624 18.7818 23.0717 20.0027C22.381 21.2236 21.3859 22.2449 20.1834 22.9671C18.9808 23.6894 17.6118 24.088 16.2095 24.1242C14.8072 24.1603 13.4194 23.8328 12.1812 23.1735L9.52109 24.0602C9.30085 24.1337 9.0645 24.1444 8.83854 24.091C8.61257 24.0377 8.40593 23.9225 8.24176 23.7583C8.07759 23.5942 7.96239 23.3875 7.90906 23.1615C7.85573 22.9356 7.86639 22.6992 7.93984 22.479L8.82656 19.8188C8.24699 18.7292 7.92328 17.5218 7.88 16.2883C7.83672 15.0549 8.075 13.8278 8.57677 12.7002C9.07854 11.5726 9.8306 10.5741 10.7759 9.78055C11.7211 8.98699 12.8348 8.41921 14.0322 8.1203C15.2297 7.82139 16.4795 7.79922 17.6868 8.05545C18.8942 8.31169 20.0272 8.8396 21.0001 9.59912C21.9729 10.3586 22.7599 11.3298 23.3014 12.4389C23.8428 13.548 24.1245 14.7659 24.125 16.0001ZM22.875 16.0001C22.8747 14.9455 22.6318 13.9051 22.1651 12.9594C21.6983 12.0137 21.0203 11.1881 20.1834 10.5464C19.3466 9.90464 18.3733 9.46405 17.3389 9.25867C16.3045 9.05329 15.2367 9.08863 14.2182 9.36196C13.1996 9.63529 12.2576 10.1393 11.465 10.8349C10.6724 11.5306 10.0504 12.3992 9.64724 13.3737C9.24407 14.3482 9.07048 15.4024 9.13992 16.4547C9.20935 17.507 9.51994 18.5292 10.0477 19.4423C10.0919 19.5189 10.1194 19.6041 10.1283 19.6922C10.1372 19.7803 10.1273 19.8693 10.0992 19.9532L9.125 22.8751L12.0469 21.9009C12.1105 21.8792 12.1773 21.8681 12.2445 21.8681C12.3543 21.8682 12.4621 21.8973 12.557 21.9524C13.6022 22.5571 14.7882 22.8759 15.9957 22.8767C17.2031 22.8774 18.3895 22.5602 19.4354 21.9568C20.4814 21.3534 21.3499 20.4852 21.9537 19.4395C22.5575 18.3938 22.8753 17.2076 22.875 16.0001Z" fill="white"/>
</svg>
