<?xml version="1.0" encoding="UTF-8"?>
<!DOCTYPE svg PUBLIC "-//W3C//DTD SVG 1.1//EN" "http://www.w3.org/Graphics/SVG/1.1/DTD/svg11.dtd">
<svg xmlns="http://www.w3.org/2000/svg" version="1.1" width="18px" height="20px" style="shape-rendering:geometricPrecision; text-rendering:geometricPrecision; image-rendering:optimizeQuality; fill-rule:evenodd; clip-rule:evenodd" xmlns:xlink="http://www.w3.org/1999/xlink">
<g><path style="opacity:0.937" fill="#543b57" d="M 4.5,-0.5 C 7.16667,-0.5 9.83333,-0.5 12.5,-0.5C 14.6504,2.62441 16.3171,5.95775 17.5,9.5C 17.5,10.8333 17.5,12.1667 17.5,13.5C 11.5,16.1667 5.5,16.1667 -0.5,13.5C -0.5,12.1667 -0.5,10.8333 -0.5,9.5C 0.682938,5.95775 2.3496,2.62441 4.5,-0.5 Z"/></g>
<g><path style="opacity:0.833" fill="#543b58" d="M 11.5,19.5 C 9.5,19.5 7.5,19.5 5.5,19.5C 5.5,18.5 5.5,17.5 5.5,16.5C 7.5,16.5 9.5,16.5 11.5,16.5C 11.5,17.5 11.5,18.5 11.5,19.5 Z"/></g>
</svg>
