<svg width="19" height="19" viewBox="0 0 19 19" fill="none" xmlns="http://www.w3.org/2000/svg">
<path d="M16.504 11.7607L13.0076 10.1939L12.9979 10.1895C12.8164 10.1118 12.6184 10.0807 12.4218 10.0988C12.2252 10.117 12.0363 10.1838 11.872 10.2934C11.8527 10.3061 11.8341 10.32 11.8164 10.3349L10.0099 11.875C8.86544 11.3191 7.68387 10.1464 7.12798 9.01681L8.67024 7.18286C8.68508 7.16431 8.69919 7.14575 8.71255 7.12571C8.81974 6.96192 8.88477 6.77416 8.90187 6.57915C8.91896 6.38414 8.88758 6.18793 8.81051 6.00798V5.99907L7.2393 2.49669C7.13743 2.26161 6.96226 2.06579 6.73995 1.93845C6.51764 1.8111 6.2601 1.75908 6.00579 1.79013C5.0001 1.92247 4.07698 2.41636 3.40882 3.17957C2.74067 3.94279 2.37319 4.92312 2.37501 5.93747C2.37501 11.8304 7.16954 16.625 13.0625 16.625C14.0769 16.6268 15.0572 16.2593 15.8204 15.5912C16.5836 14.923 17.0775 13.9999 17.2099 12.9942C17.241 12.74 17.189 12.4825 17.0618 12.2602C16.9346 12.0379 16.739 11.8627 16.504 11.7607ZM13.0625 15.4375C10.5438 15.4347 8.12903 14.4329 6.34803 12.6519C4.56703 10.8709 3.56526 8.45618 3.56251 5.93747C3.55971 5.21272 3.82083 4.51173 4.29708 3.96541C4.77333 3.41909 5.43215 3.06481 6.15051 2.96872C6.15022 2.97168 6.15022 2.97467 6.15051 2.97763L7.70911 6.46591L6.17501 8.30208C6.15944 8.32 6.14529 8.33911 6.1327 8.35923C6.02101 8.53061 5.95549 8.72795 5.94249 8.9321C5.92949 9.13625 5.96944 9.3403 6.05848 9.52447C6.73091 10.8997 8.11657 12.275 9.50669 12.9467C9.69221 13.0349 9.89744 13.0735 10.1023 13.0586C10.3072 13.0438 10.5047 12.9761 10.6756 12.8621C10.6947 12.8492 10.713 12.8354 10.7306 12.8205L12.5348 11.2812L16.0231 12.8435C16.0231 12.8435 16.029 12.8435 16.0313 12.8435C15.9363 13.5629 15.5826 14.2231 15.0362 14.7005C14.4898 15.1779 13.7881 15.4399 13.0625 15.4375Z" fill="white"/>
</svg>
