<svg width="19" height="19" viewBox="0 0 19 19" fill="none" xmlns="http://www.w3.org/2000/svg">
<path d="M18.7388 14.4137C18.5716 15.6841 17.9477 16.8501 16.9837 17.6941C16.0196 18.5381 14.7813 19.0023 13.5 19C6.05626 19 8.4831e-06 12.9437 8.4831e-06 5.49999C-0.00228837 4.2187 0.461903 2.98039 1.30588 2.01633C2.14986 1.05228 3.31592 0.428406 4.58626 0.261243C4.9075 0.222019 5.2328 0.287739 5.51362 0.448592C5.79444 0.609445 6.0157 0.856804 6.14438 1.15374L8.12438 5.57406V5.58531C8.2229 5.81261 8.26359 6.06077 8.24282 6.30763C8.22204 6.55449 8.14044 6.79236 8.00532 6.99999C7.98845 7.02531 7.97063 7.04874 7.95188 7.07218L6.00001 9.38593C6.7022 10.8128 8.1947 12.2922 9.64032 12.9962L11.9222 11.0547C11.9446 11.0358 11.9681 11.0183 11.9925 11.0022C12.2 10.8638 12.4387 10.7793 12.687 10.7564C12.9353 10.7335 13.1854 10.7729 13.4147 10.8709L13.4269 10.8766L17.8434 12.8556C18.1409 12.9838 18.3889 13.2049 18.5503 13.4858C18.7116 13.7666 18.7778 14.0922 18.7388 14.4137Z" fill="#4F3D56"/>
</svg>
