<svg width="22" height="20" viewBox="0 0 22 20" fill="none" xmlns="http://www.w3.org/2000/svg">
<path d="M21.3125 6.75594C21.2424 6.67576 21.1559 6.61147 21.0589 6.56734C20.9619 6.52321 20.8566 6.50025 20.75 6.5H16.5904L11.5625 0.755936C11.4922 0.676131 11.4056 0.612215 11.3086 0.568436C11.2116 0.524656 11.1065 0.502014 11 0.502014C10.8936 0.502014 10.7885 0.524656 10.6915 0.568436C10.5945 0.612215 10.5079 0.676131 10.4375 0.755936L5.40974 6.5H1.25005C1.14316 6.49999 1.03751 6.52283 0.940164 6.56699C0.842823 6.61115 0.756044 6.6756 0.685645 6.75603C0.615245 6.83646 0.562851 6.93101 0.531974 7.03334C0.501097 7.13568 0.49245 7.24343 0.506613 7.34937L1.91943 17.9487C1.96871 18.3085 2.14633 18.6383 2.41955 18.8774C2.69278 19.1165 3.04322 19.2488 3.4063 19.25H18.5938C18.9569 19.2488 19.3073 19.1165 19.5805 18.8774C19.8538 18.6383 20.0314 18.3085 20.0807 17.9487L21.4935 7.34937C21.5074 7.24327 21.4985 7.13543 21.4673 7.03307C21.436 6.93071 21.3833 6.83622 21.3125 6.75594ZM6.65005 16.25C6.62476 16.2514 6.59941 16.2514 6.57411 16.25C6.38754 16.2509 6.20731 16.1823 6.06863 16.0575C5.92995 15.9327 5.84277 15.7606 5.82411 15.575L5.29911 10.325C5.27922 10.1271 5.33877 9.92937 5.46465 9.77535C5.59054 9.62134 5.77245 9.52364 5.97036 9.50375C6.16828 9.48386 6.36599 9.5434 6.52001 9.66929C6.67402 9.79517 6.77172 9.97708 6.79161 10.175L7.31661 15.425C7.33762 15.6228 7.27919 15.8208 7.15419 15.9755C7.02918 16.1303 6.84784 16.229 6.65005 16.25ZM11.75 15.5C11.75 15.6989 11.671 15.8897 11.5304 16.0303C11.3897 16.171 11.199 16.25 11 16.25C10.8011 16.25 10.6104 16.171 10.4697 16.0303C10.3291 15.8897 10.25 15.6989 10.25 15.5V10.25C10.25 10.0511 10.3291 9.86032 10.4697 9.71967C10.6104 9.57902 10.8011 9.5 11 9.5C11.199 9.5 11.3897 9.57902 11.5304 9.71967C11.671 9.86032 11.75 10.0511 11.75 10.25V15.5ZM7.40286 6.5L11 2.38906L14.5972 6.5H7.40286ZM16.6963 10.325L16.1713 15.575C16.1527 15.7598 16.0662 15.9312 15.9285 16.0559C15.7908 16.1806 15.6118 16.2498 15.426 16.25C15.4007 16.2514 15.3753 16.2514 15.35 16.25C15.2521 16.2402 15.157 16.2111 15.0702 16.1645C14.9834 16.1179 14.9067 16.0547 14.8443 15.9784C14.782 15.9021 14.7353 15.8143 14.7069 15.72C14.6785 15.6257 14.669 15.5267 14.6788 15.4287L15.2038 10.1787C15.2237 9.98083 15.3214 9.79892 15.4754 9.67304C15.6294 9.54715 15.8271 9.48761 16.0251 9.5075C16.223 9.52739 16.4049 9.62509 16.5308 9.7791C16.6566 9.93312 16.7162 10.1308 16.6963 10.3287V10.325Z" fill="#4F3D56"/>
</svg>
