<svg width="20" height="19" viewBox="0 0 20 19" fill="none" xmlns="http://www.w3.org/2000/svg">
<path d="M19.6497 18.625C19.5838 18.739 19.4891 18.8337 19.3751 18.8995C19.261 18.9654 19.1316 19 19 19H0.999964C0.868376 18.9999 0.73914 18.9651 0.625233 18.8992C0.511326 18.8333 0.416756 18.7386 0.351021 18.6247C0.285286 18.5107 0.250699 18.3814 0.250732 18.2498C0.250766 18.1182 0.28542 17.9889 0.351214 17.875C1.77903 15.4065 3.97934 13.6365 6.54715 12.7975C5.277 12.0414 4.29016 10.8892 3.7382 9.51792C3.18624 8.14665 3.09967 6.63211 3.49178 5.20688C3.8839 3.78165 4.73301 2.52454 5.90874 1.6286C7.08446 0.732664 8.52178 0.247437 9.99996 0.247437C11.4781 0.247437 12.9155 0.732664 14.0912 1.6286C15.2669 2.52454 16.116 3.78165 16.5081 5.20688C16.9003 6.63211 16.8137 8.14665 16.2617 9.51792C15.7098 10.8892 14.7229 12.0414 13.4528 12.7975C16.0206 13.6365 18.2209 15.4065 19.6487 17.875C19.7147 17.9889 19.7495 18.1182 19.7497 18.2499C19.7498 18.3815 19.7153 18.5109 19.6497 18.625Z" fill="#4F3D56"/>
</svg>
