<svg width="34" height="34" viewBox="0 0 34 34" fill="none" xmlns="http://www.w3.org/2000/svg">
<path d="M15.9375 7.4375V13.8125C15.9375 14.3761 15.7136 14.9166 15.3151 15.3151C14.9166 15.7136 14.3761 15.9375 13.8125 15.9375H7.4375C6.87391 15.9375 6.33341 15.7136 5.9349 15.3151C5.53638 14.9166 5.3125 14.3761 5.3125 13.8125V7.4375C5.3125 6.87391 5.53638 6.33341 5.9349 5.9349C6.33341 5.53638 6.87391 5.3125 7.4375 5.3125H13.8125C14.3761 5.3125 14.9166 5.53638 15.3151 5.9349C15.7136 6.33341 15.9375 6.87391 15.9375 7.4375ZM13.8125 18.0625H7.4375C6.87391 18.0625 6.33341 18.2864 5.9349 18.6849C5.53638 19.0834 5.3125 19.6239 5.3125 20.1875V26.5625C5.3125 27.1261 5.53638 27.6666 5.9349 28.0651C6.33341 28.4636 6.87391 28.6875 7.4375 28.6875H13.8125C14.3761 28.6875 14.9166 28.4636 15.3151 28.0651C15.7136 27.6666 15.9375 27.1261 15.9375 26.5625V20.1875C15.9375 19.6239 15.7136 19.0834 15.3151 18.6849C14.9166 18.2864 14.3761 18.0625 13.8125 18.0625ZM26.5625 5.3125H20.1875C19.6239 5.3125 19.0834 5.53638 18.6849 5.9349C18.2864 6.33341 18.0625 6.87391 18.0625 7.4375V13.8125C18.0625 14.3761 18.2864 14.9166 18.6849 15.3151C19.0834 15.7136 19.6239 15.9375 20.1875 15.9375H26.5625C27.1261 15.9375 27.6666 15.7136 28.0651 15.3151C28.4636 14.9166 28.6875 14.3761 28.6875 13.8125V7.4375C28.6875 6.87391 28.4636 6.33341 28.0651 5.9349C27.6666 5.53638 27.1261 5.3125 26.5625 5.3125ZM19.125 24.4375C19.4068 24.4375 19.677 24.3256 19.8763 24.1263C20.0756 23.927 20.1875 23.6568 20.1875 23.375V19.125C20.1875 18.8432 20.0756 18.573 19.8763 18.3737C19.677 18.1744 19.4068 18.0625 19.125 18.0625C18.8432 18.0625 18.573 18.1744 18.3737 18.3737C18.1744 18.573 18.0625 18.8432 18.0625 19.125V23.375C18.0625 23.6568 18.1744 23.927 18.3737 24.1263C18.573 24.3256 18.8432 24.4375 19.125 24.4375ZM27.625 20.1875H24.4375V19.125C24.4375 18.8432 24.3256 18.573 24.1263 18.3737C23.927 18.1744 23.6568 18.0625 23.375 18.0625C23.0932 18.0625 22.823 18.1744 22.6237 18.3737C22.4244 18.573 22.3125 18.8432 22.3125 19.125V26.5625H19.125C18.8432 26.5625 18.573 26.6744 18.3737 26.8737C18.1744 27.073 18.0625 27.3432 18.0625 27.625C18.0625 27.9068 18.1744 28.177 18.3737 28.3763C18.573 28.5756 18.8432 28.6875 19.125 28.6875H23.375C23.6568 28.6875 23.927 28.5756 24.1263 28.3763C24.3256 28.177 24.4375 27.9068 24.4375 27.625V22.3125H27.625C27.9068 22.3125 28.177 22.2006 28.3763 22.0013C28.5756 21.802 28.6875 21.5318 28.6875 21.25C28.6875 20.9682 28.5756 20.698 28.3763 20.4987C28.177 20.2994 27.9068 20.1875 27.625 20.1875ZM27.625 24.4375C27.3432 24.4375 27.073 24.5494 26.8737 24.7487C26.6744 24.948 26.5625 25.2182 26.5625 25.5V27.625C26.5625 27.9068 26.6744 28.177 26.8737 28.3763C27.073 28.5756 27.3432 28.6875 27.625 28.6875C27.9068 28.6875 28.177 28.5756 28.3763 28.3763C28.5756 28.177 28.6875 27.9068 28.6875 27.625V25.5C28.6875 25.2182 28.5756 24.948 28.3763 24.7487C28.177 24.5494 27.9068 24.4375 27.625 24.4375Z" fill="#1F2937"/>
</svg>
