<?xml version="1.0" encoding="UTF-8"?>
<!DOCTYPE svg PUBLIC "-//W3C//DTD SVG 1.1//EN" "http://www.w3.org/Graphics/SVG/1.1/DTD/svg11.dtd">
<svg xmlns="http://www.w3.org/2000/svg" version="1.1" width="28px" height="28px" style="shape-rendering:geometricPrecision; text-rendering:geometricPrecision; image-rendering:optimizeQuality; fill-rule:evenodd; clip-rule:evenodd" xmlns:xlink="http://www.w3.org/1999/xlink">
<g><path style="opacity:0.788" fill="#fefffe" d="M 8.5,-0.5 C 13.5,-0.5 18.5,-0.5 23.5,-0.5C 25.1667,0.5 26.5,1.83333 27.5,3.5C 27.5,4.83333 27.5,6.16667 27.5,7.5C 25.6208,8.34141 23.6208,8.67474 21.5,8.5C 21.666,13.8437 21.4994,19.1771 21,24.5C 19.955,25.3734 19.1217,26.3734 18.5,27.5C 13.5,27.5 8.5,27.5 3.5,27.5C 1.83333,26.5 0.5,25.1667 -0.5,23.5C -0.5,22.1667 -0.5,20.8333 -0.5,19.5C 1.3792,18.6586 3.3792,18.3253 5.5,18.5C 5.33398,13.1563 5.50065,7.82294 6,2.5C 7.04499,1.62656 7.87833,0.626561 8.5,-0.5 Z M 9.5,3.5 C 12.5,3.5 15.5,3.5 18.5,3.5C 18.6662,9.84209 18.4995,16.1754 18,22.5C 17.6667,22.8333 17.3333,23.1667 17,23.5C 16.7266,21.8988 16.2266,20.3988 15.5,19C 13.1902,18.5034 10.8568,18.3367 8.5,18.5C 8.22128,13.4053 8.55462,8.40533 9.5,3.5 Z M 21.5,3.5 C 23.337,3.63945 23.6704,4.30612 22.5,5.5C 21.7025,5.04311 21.3691,4.37644 21.5,3.5 Z M 3.5,21.5 C 7.04786,21.0949 10.3812,21.5949 13.5,23C 11.8333,23.1667 10.1667,23.3333 8.5,23.5C 6.3603,23.4439 4.69363,22.7773 3.5,21.5 Z"/></g>
</svg>
