<svg width="26" height="30" viewBox="0 0 26 30" fill="none" xmlns="http://www.w3.org/2000/svg">
<path d="M25.1563 24.5626C25.1564 25.2604 25.0037 25.9498 24.709 26.5824C24.4143 27.215 23.9847 27.7754 23.4503 28.2242C22.916 28.6731 22.2898 28.9995 21.6159 29.1806C20.9419 29.3617 20.2365 29.3931 19.5492 29.2726C18.8618 29.152 18.2091 28.8825 17.637 28.4828C17.0649 28.0832 16.5873 27.5632 16.2375 26.9593C15.8878 26.3554 15.6745 25.6822 15.6126 24.9871C15.5508 24.292 15.6418 23.5918 15.8794 22.9356L8.8403 18.4134C8.16802 19.0728 7.31597 19.519 6.39104 19.6961C5.46612 19.8731 4.5095 19.7731 3.64122 19.4085C2.77293 19.0439 2.03164 18.4311 1.51033 17.6468C0.989033 16.8625 0.710937 15.9418 0.710938 15.0001C0.710937 14.0584 0.989033 13.1376 1.51033 12.3533C2.03164 11.5691 2.77293 10.9562 3.64122 10.5916C4.5095 10.2271 5.46612 10.127 6.39104 10.3041C7.31597 10.4811 8.16802 10.9273 8.8403 11.5868L15.8794 7.07117C15.4763 5.96357 15.4954 4.74629 15.9332 3.65193C16.3709 2.55756 17.1965 1.66285 18.2522 1.13874C19.3079 0.614635 20.5198 0.497888 21.6561 0.810808C22.7925 1.12373 23.7737 1.84438 24.4123 2.83505C25.0509 3.82572 25.3021 5.01695 25.1179 6.18113C24.9337 7.3453 24.327 8.40079 23.4137 9.14591C22.5005 9.89102 21.3447 10.2735 20.1672 10.2203C18.9898 10.1671 17.8732 9.68194 17.0308 8.8575L9.99179 13.3798C10.3722 14.431 10.3722 15.5824 9.99179 16.6337L17.0308 21.1559C17.7029 20.4982 18.554 20.0532 19.4777 19.8767C20.4013 19.7002 21.3565 19.8 22.2237 20.1636C23.091 20.5272 23.8317 21.1385 24.3533 21.9209C24.875 22.7033 25.1543 23.6222 25.1563 24.5626Z" fill="#1F2937"/>
</svg>
