<svg width="25" height="24" viewBox="0 0 25 24" fill="none" xmlns="http://www.w3.org/2000/svg">
<path fill-rule="evenodd" clip-rule="evenodd" d="M8.94951 15.7286C8.94951 15.0578 9.48948 14.5134 10.1548 14.5134H14.9759C15.6412 14.5134 16.1812 15.0578 16.1812 15.7286C16.1812 16.3994 15.6412 16.9438 14.9759 16.9438H10.1548C9.48948 16.9438 8.94951 16.3994 8.94951 15.7286V15.7286ZM19.1462 19.6002C19.0377 20.1738 18.5411 20.5894 17.9614 20.5894H7.19101C6.60283 20.5894 6.09903 20.1604 6.0026 19.5735L4.5635 10.8679H20.7854L19.1462 19.6002ZM23.4129 8.43747H21.0023L16.7561 0.802418C16.4222 0.221567 15.6858 -0.0871015 15.1085 0.2483C14.5324 0.583689 14.3347 1.49144 14.6686 2.0723L18.2193 8.43747H6.91138L10.4621 2.01762C10.796 1.43676 10.5983 0.583689 10.0222 0.2483C9.44488 -0.0871015 8.70846 0.27625 8.37459 0.857112L4.12839 8.43747H1.71783C0.275114 8.43747 -0.202177 10.8679 2.11919 10.8679L3.79212 20.9892C3.98617 22.1606 4.99258 23.0198 6.17014 23.0198H18.9606C20.1381 23.0198 21.1445 22.1606 21.3386 20.9892L23.0115 10.8679C25.3341 10.8679 24.8508 8.43747 23.4129 8.43747V8.43747Z" fill="#1C162E"/>
</svg>
