<?xml version="1.0" encoding="UTF-8"?>
<!DOCTYPE svg PUBLIC "-//W3C//DTD SVG 1.1//EN" "http://www.w3.org/Graphics/SVG/1.1/DTD/svg11.dtd">
<svg xmlns="http://www.w3.org/2000/svg" version="1.1" width="512px" height="512px" style="shape-rendering:geometricPrecision; text-rendering:geometricPrecision; image-rendering:optimizeQuality; fill-rule:evenodd; clip-rule:evenodd" xmlns:xlink="http://www.w3.org/1999/xlink">
<g><path style="opacity:0.947" fill="#000000" d="M 136.5,15.5 C 215.834,15.3333 295.167,15.5 374.5,16C 387.107,17.2753 394.607,24.1086 397,36.5C 397.667,182.167 397.667,327.833 397,473.5C 394.392,485.774 386.892,492.941 374.5,495C 295.167,495.667 215.833,495.667 136.5,495C 125.304,493.468 118.137,487.301 115,476.5C 114.333,328.833 114.333,181.167 115,33.5C 118.74,23.2493 125.906,17.2493 136.5,15.5 Z M 137.5,37.5 C 216.167,37.3333 294.834,37.5 373.5,38C 374,38.5 374.5,39 375,39.5C 375.5,46.1583 375.666,52.825 375.5,59.5C 295.5,59.5 215.5,59.5 135.5,59.5C 135.334,52.825 135.5,46.1583 136,39.5C 136.717,38.9558 137.217,38.2891 137.5,37.5 Z M 135.5,81.5 C 215.5,81.5 295.5,81.5 375.5,81.5C 375.5,197.5 375.5,313.5 375.5,429.5C 295.5,429.5 215.5,429.5 135.5,429.5C 135.5,313.5 135.5,197.5 135.5,81.5 Z M 135.5,451.5 C 215.5,451.5 295.5,451.5 375.5,451.5C 375.813,458.755 375.48,465.921 374.5,473C 295.5,473.667 216.5,473.667 137.5,473C 137,472.5 136.5,472 136,471.5C 135.5,464.842 135.334,458.175 135.5,451.5 Z"/></g>
</svg>
