<svg width="20" height="20" viewBox="0 0 20 20" fill="none" xmlns="http://www.w3.org/2000/svg">
<path fill-rule="evenodd" clip-rule="evenodd" d="M5.98507 6.68008V6.68008C5.98507 6.29616 6.29664 5.98457 6.68054 5.98457C7.06444 5.98457 7.37601 6.29616 7.37601 6.68008C7.37601 7.064 7.06444 7.37558 6.68054 7.37558C6.29664 7.37558 5.98507 7.064 5.98507 6.68008V6.68008ZM10.8499 14.7841L4.82642 8.76033C4.76105 8.69495 4.72488 8.60663 4.72488 8.51412V5.41983C4.72488 5.03521 5.03576 4.72363 5.42035 4.72363H8.51449C8.60698 4.72363 8.69531 4.76049 8.76068 4.82587L14.7841 10.8496C15.0554 11.1216 15.0554 11.5618 14.7841 11.8331L11.8333 14.7841C11.562 15.0553 11.1218 15.0553 10.8499 14.7841V14.7841ZM13.9558 8.05439V8.05439C13.8404 7.93825 9.32262 3.42095 9.43876 3.5364C9.30801 3.40634 9.13137 3.33331 8.94707 3.33331H4.72488C3.95639 3.33331 3.33325 3.95579 3.33325 4.72363V8.94673C3.33325 9.13103 3.40697 9.30769 3.53702 9.43845L10.3582 16.2593C10.9013 16.8024 11.7818 16.8024 12.325 16.2593V16.2593C12.4487 16.1355 16.303 12.2817 16.2592 12.3248C16.8024 11.7816 16.8024 10.9011 16.2592 10.3579L13.9558 8.05439Z" fill="white"/>
</svg>
