<svg width="18" height="18" viewBox="0 0 18 18" fill="none" xmlns="http://www.w3.org/2000/svg">
<path d="M16.5459 3.04406L3.04594 16.5441C2.94129 16.6487 2.81706 16.7317 2.68033 16.7884C2.5436 16.845 2.39706 16.8741 2.24906 16.8741C2.10107 16.8741 1.95452 16.845 1.8178 16.7884C1.68107 16.7317 1.55683 16.6487 1.45219 16.5441C1.34754 16.4394 1.26453 16.3152 1.2079 16.1785C1.15126 16.0417 1.12211 15.8952 1.12211 15.7472C1.12211 15.5992 1.15126 15.4526 1.2079 15.3159C1.26453 15.1792 1.34754 15.055 1.45219 14.9503L14.9522 1.45031C15.1635 1.23897 15.4502 1.12024 15.7491 1.12024C16.0479 1.12024 16.3346 1.23897 16.5459 1.45031C16.7573 1.66166 16.876 1.9483 16.876 2.24719C16.876 2.54607 16.7573 2.83272 16.5459 3.04406ZM1.47375 6.77531C0.860591 6.16153 0.479218 5.35414 0.394612 4.4907C0.310006 3.62726 0.527402 2.7612 1.00976 2.04007C1.49211 1.31895 2.20958 0.78738 3.03993 0.535943C3.87027 0.284505 4.7621 0.328753 5.56348 0.661148C6.36485 0.993543 7.02618 1.59352 7.43479 2.35885C7.84339 3.12418 7.97399 4.00751 7.80434 4.85833C7.63468 5.70916 7.17526 6.47483 6.50435 7.02491C5.83345 7.57498 4.99258 7.8754 4.125 7.875C3.6323 7.87621 3.14427 7.77964 2.68916 7.59087C2.23406 7.4021 1.82094 7.12489 1.47375 6.77531ZM2.625 4.125C2.62484 4.47204 2.74502 4.8084 2.96506 5.07677C3.1851 5.34513 3.49139 5.5289 3.83173 5.59675C4.17208 5.6646 4.52542 5.61234 4.83155 5.44887C5.13768 5.2854 5.37766 5.02084 5.51059 4.70027C5.64353 4.3797 5.66119 4.02295 5.56058 3.69081C5.45996 3.35868 5.24729 3.0717 4.95881 2.87879C4.67032 2.68588 4.32387 2.59897 3.97849 2.63287C3.63311 2.66677 3.31016 2.81937 3.06469 3.06469C2.92484 3.2035 2.81395 3.36872 2.73847 3.55073C2.66299 3.73275 2.62442 3.92795 2.625 4.125ZM17.625 13.875C17.625 14.7426 17.3241 15.5833 16.7738 16.2539C16.2234 16.9245 15.4575 17.3835 14.6066 17.5528C13.7557 17.7221 12.8725 17.5911 12.1074 17.1821C11.3422 16.7732 10.7426 16.1116 10.4105 15.3101C10.0785 14.5086 10.0346 13.6168 10.2864 12.7866C10.5382 11.9564 11.07 11.2391 11.7913 10.7571C12.5126 10.275 13.3787 10.058 14.2421 10.1429C15.1055 10.2278 15.9127 10.6095 16.5262 11.2228C16.8758 11.5702 17.1529 11.9835 17.3416 12.4387C17.5302 12.894 17.6265 13.3822 17.625 13.875ZM15.375 13.875C15.3757 13.6778 15.3372 13.4824 15.2617 13.3002C15.1862 13.118 15.0753 12.9527 14.9353 12.8137C14.6899 12.5685 14.367 12.4159 14.0216 12.3819C13.6763 12.348 13.3299 12.4349 13.0414 12.6277C12.7529 12.8206 12.5402 13.1075 12.4395 13.4395C12.3388 13.7716 12.3564 14.1283 12.4892 14.4489C12.622 14.7695 12.8619 15.0341 13.1679 15.1977C13.474 15.3612 13.8272 15.4136 14.1676 15.3459C14.5079 15.2783 14.8143 15.0947 15.0344 14.8265C15.2546 14.5583 15.3749 14.222 15.375 13.875Z" fill="#4F3D56"/>
</svg>
