<svg width="16" height="22" viewBox="0 0 16 22" fill="none" xmlns="http://www.w3.org/2000/svg">
<path d="M9.5 0.5H6.5C4.90923 0.501737 3.38412 1.13444 2.25928 2.25928C1.13444 3.38412 0.501737 4.90923 0.5 6.5V15.5C0.501737 17.0908 1.13444 18.6159 2.25928 19.7407C3.38412 20.8656 4.90923 21.4983 6.5 21.5H9.5C11.0908 21.4983 12.6159 20.8656 13.7407 19.7407C14.8656 18.6159 15.4983 17.0908 15.5 15.5V6.5C15.4983 4.90923 14.8656 3.38412 13.7407 2.25928C12.6159 1.13444 11.0908 0.501737 9.5 0.5ZM9.71937 14.2194C9.86011 14.0786 10.051 13.9996 10.25 13.9996C10.449 13.9996 10.6399 14.0786 10.7806 14.2194C10.9214 14.3601 11.0004 14.551 11.0004 14.75C11.0004 14.949 10.9214 15.1399 10.7806 15.2806L8.53063 17.5306C8.46097 17.6004 8.37825 17.6557 8.28721 17.6934C8.19616 17.7312 8.09856 17.7506 8 17.7506C7.90144 17.7506 7.80384 17.7312 7.71279 17.6934C7.62175 17.6557 7.53903 17.6004 7.46937 17.5306L5.21937 15.2806C5.07864 15.1399 4.99958 14.949 4.99958 14.75C4.99958 14.551 5.07864 14.3601 5.21937 14.2194C5.36011 14.0786 5.55098 13.9996 5.75 13.9996C5.94902 13.9996 6.13989 14.0786 6.28063 14.2194L7.25 15.1897V6.81031L6.28063 7.78063C6.13989 7.92136 5.94902 8.00042 5.75 8.00042C5.55098 8.00042 5.36011 7.92136 5.21937 7.78063C5.07864 7.63989 4.99958 7.44902 4.99958 7.25C4.99958 7.05098 5.07864 6.86011 5.21937 6.71937L7.46937 4.46938C7.53903 4.39964 7.62175 4.34432 7.71279 4.30658C7.80384 4.26884 7.90144 4.24941 8 4.24941C8.09856 4.24941 8.19616 4.26884 8.28721 4.30658C8.37825 4.34432 8.46097 4.39964 8.53063 4.46938L10.7806 6.71937C10.8503 6.78906 10.9056 6.87178 10.9433 6.96283C10.981 7.05387 11.0004 7.15145 11.0004 7.25C11.0004 7.34855 10.981 7.44613 10.9433 7.53717C10.9056 7.62822 10.8503 7.71094 10.7806 7.78063C10.7109 7.85031 10.6282 7.90558 10.5372 7.9433C10.4461 7.98101 10.3485 8.00042 10.25 8.00042C10.1515 8.00042 10.0539 7.98101 9.96283 7.9433C9.87178 7.90558 9.78906 7.85031 9.71937 7.78063L8.75 6.81031V15.1897L9.71937 14.2194Z" fill="#4F3D56"/>
</svg>
