<svg width="30" height="27" viewBox="0 0 30 27" fill="none" xmlns="http://www.w3.org/2000/svg">
<path d="M7.87328 9.37672C7.67391 9.17735 7.56191 8.90695 7.56191 8.625C7.56191 8.34305 7.67391 8.07265 7.87328 7.87328C8.07265 7.67391 8.34305 7.56191 8.625 7.56191C8.90695 7.56191 9.17735 7.67391 9.37672 7.87328L13.9375 12.4354V1.1875C13.9375 0.905707 14.0494 0.635456 14.2487 0.436199C14.448 0.236942 14.7182 0.125 15 0.125C15.2818 0.125 15.552 0.236942 15.7513 0.436199C15.9506 0.635456 16.0625 0.905707 16.0625 1.1875V12.4354L20.6233 7.87328C20.8226 7.67391 21.0931 7.56191 21.375 7.56191C21.6569 7.56191 21.9274 7.67391 22.1267 7.87328C22.3261 8.07265 22.4381 8.34305 22.4381 8.625C22.4381 8.90695 22.3261 9.17735 22.1267 9.37672L15.7517 15.7517C15.653 15.8505 15.5359 15.9289 15.4069 15.9823C15.2779 16.0358 15.1396 16.0633 15 16.0633C14.8604 16.0633 14.7221 16.0358 14.5931 15.9823C14.4641 15.9289 14.347 15.8505 14.2483 15.7517L7.87328 9.37672ZM29.875 16.0625V24.5625C29.875 25.1261 29.6511 25.6666 29.2526 26.0651C28.8541 26.4636 28.3136 26.6875 27.75 26.6875H2.25C1.68641 26.6875 1.14591 26.4636 0.747398 26.0651C0.348883 25.6666 0.125 25.1261 0.125 24.5625V16.0625C0.125 15.4989 0.348883 14.9584 0.747398 14.5599C1.14591 14.1614 1.68641 13.9375 2.25 13.9375H9.20938C9.27916 13.9374 9.34827 13.9511 9.41276 13.9778C9.47725 14.0045 9.53586 14.0436 9.58523 14.0929L12.7422 17.2578C13.0383 17.555 13.3902 17.7908 13.7776 17.9516C14.1651 18.1125 14.5805 18.1953 15 18.1953C15.4195 18.1953 15.8349 18.1125 16.2224 17.9516C16.6098 17.7908 16.9617 17.555 17.2578 17.2578L20.4188 14.0969C20.5168 13.9968 20.6505 13.9395 20.7906 13.9375H27.75C28.3136 13.9375 28.8541 14.1614 29.2526 14.5599C29.6511 14.9584 29.875 15.4989 29.875 16.0625ZM24.5625 20.3125C24.5625 19.9973 24.469 19.6892 24.2939 19.4271C24.1188 19.165 23.8699 18.9607 23.5787 18.8401C23.2874 18.7194 22.967 18.6879 22.6578 18.7494C22.3487 18.8109 22.0647 18.9627 21.8418 19.1855C21.6189 19.4084 21.4671 19.6924 21.4056 20.0016C21.3441 20.3107 21.3757 20.6312 21.4963 20.9224C21.6169 21.2136 21.8212 21.4625 22.0833 21.6377C22.3454 21.8128 22.6535 21.9063 22.9688 21.9062C23.3914 21.9062 23.7968 21.7383 24.0957 21.4395C24.3946 21.1406 24.5625 20.7352 24.5625 20.3125Z" fill="#1F2937"/>
</svg>
