<svg width="16" height="16" viewBox="0 0 16 16" fill="none" xmlns="http://www.w3.org/2000/svg">
<path d="M1.51672 15.8998C1.12445 15.9226 0.738661 15.7922 0.440711 15.5361C-0.146904 14.945 -0.146904 13.9903 0.440711 13.3992L13.3076 0.532275C13.9187 -0.0396191 14.8778 -0.00782782 15.4496 0.603343C15.9668 1.15602 15.9969 2.0055 15.5202 2.59342L2.57757 15.5361C2.28346 15.7885 1.90386 15.9187 1.51672 15.8998Z" fill="#1F2C37"/>
<path d="M14.3684 15.8998C13.9708 15.8981 13.5898 15.7403 13.3075 15.4603L0.440589 2.59337C-0.103806 1.95764 -0.0297926 1.00091 0.605933 0.456468C1.17334 -0.0294346 2.01014 -0.0294346 2.57749 0.456468L15.5201 13.3233C16.1312 13.8954 16.1628 14.8545 15.5907 15.4655C15.568 15.4898 15.5444 15.5133 15.5201 15.5361C15.2032 15.8117 14.7861 15.9434 14.3684 15.8998Z" fill="#1F2C37"/>
</svg>
