<svg width="20" height="20" viewBox="0 0 20 20" fill="none" xmlns="http://www.w3.org/2000/svg">
<path fill-rule="evenodd" clip-rule="evenodd" d="M2.5 4.16667C2.5 3.24619 3.24619 2.5 4.16667 2.5H15.8333C16.7538 2.5 17.5 3.24619 17.5 4.16667V15.8333C17.5 16.7538 16.7538 17.5 15.8333 17.5H4.16667C3.24619 17.5 2.5 16.7538 2.5 15.8333V4.16667ZM4.16667 4.16667H5.83333V5C5.83333 6.38071 6.95262 7.5 8.33333 7.5H11.6667C13.0474 7.5 14.1667 6.38071 14.1667 5V4.16667H15.8333V15.8333H4.16667V4.16667ZM7.5 5V4.16667H12.5V5C12.5 5.46023 12.1269 5.83333 11.6667 5.83333H8.33333C7.8731 5.83333 7.5 5.46023 7.5 5ZM6.66667 9.16667C6.20643 9.16667 5.83333 9.53975 5.83333 10C5.83333 10.4602 6.20643 10.8333 6.66667 10.8333H13.2996C13.7598 10.8333 14.1329 10.4602 14.1329 10C14.1329 9.53975 13.7598 9.16667 13.2996 9.16667H6.66667ZM6.70044 12.5554C6.2402 12.5554 5.86711 12.9285 5.86711 13.3888C5.86711 13.849 6.2402 14.2221 6.70044 14.2221H13.3333C13.7936 14.2221 14.1667 13.849 14.1667 13.3888C14.1667 12.9285 13.7936 12.5554 13.3333 12.5554H6.70044Z" fill="white"/>
</svg>
